<svg viewBox="0 0 200 160" xmlns="http://www.w3.org/2000/svg" role="img" aria-label="CoinPanther logo">
  <title>CoinPanther</title>
  <!-- Geometric panther — minimal 2D, luxury black & white, matches uploaded mark -->
  <path d="M 18 152 L 38 132 L 62 124 L 96 96 L 112 78 L 124 82 L 138 96 L 152 88 L 166 98 L 172 132 L 152 146 L 132 142 L 120 126 L 108 108 L 94 120 L 128 144 L 148 150 L 172 142 L 188 152 L 192 88 L 182 68 L 168 48 L 148 28 L 122 12 L 92 18 L 68 38 L 48 58 L 32 78 L 28 98 L 36 112 L 54 114 L 62 98 L 78 88 L 92 72 L 118 52 L 142 42 L 162 48 L 178 62 L 172 78 L 158 88 L 142 78 L 132 62 L 118 58 L 102 68 L 88 88 L 78 108 L 66 122 L 48 128 Z" fill="#0A0A0A"/>
  <!-- Eye negative -->
  <path d="M 78 72 L 96 58 L 92 78 L 82 84 Z" fill="white"/>
  <!-- Nose -->
  <path d="M 52 96 L 62 92 L 68 98 L 58 104 Z" fill="white"/>
  <!-- Body negative tail loop -->
  <path d="M 128 108 L 142 128 L 148 138 L 138 142 L 124 132 L 118 118 Z" fill="white"/>
</svg>
